<svg xmlns="http://www.w3.org/2000/svg" width="460" height="300" viewBox="0 0 460 300" role="img" aria-label="Stall forecast lead time, minutes"><title>Stall forecast lead time, minutes</title><rect width="460" height="300" fill="#FFFFFF"/><line x1="46" y1="254" x2="414" y2="254" stroke="#1A1A1A" stroke-width="1"/><text x="46" y="30" font-size="13" fill="#1A1A1A" font-family="system-ui, sans-serif">Stall forecast lead time, minutes</text><text x="46" y="44" font-size="11" fill="#767676" font-family="system-ui, sans-serif">33 predictions, 5 to 95 minutes</text><rect x="47.0" y="46.0" width="34.8" height="208.0" fill="#767676"/><text x="64.4" y="42.0" font-size="10" fill="#1A1A1A" text-anchor="middle" font-family="monospace">22</text><rect x="83.8" y="216.2" width="34.8" height="37.8" fill="#767676"/><text x="101.2" y="212.2" font-size="10" fill="#1A1A1A" text-anchor="middle" font-family="monospace">4</text><rect x="120.6" y="254.0" width="34.8" height="0.0" fill="#767676"/><rect x="157.4" y="254.0" width="34.8" height="0.0" fill="#767676"/><rect x="194.2" y="254.0" width="34.8" height="0.0" fill="#767676"/><rect x="231.0" y="254.0" width="34.8" height="0.0" fill="#767676"/><rect x="267.8" y="254.0" width="34.8" height="0.0" fill="#767676"/><rect x="304.6" y="254.0" width="34.8" height="0.0" fill="#767676"/><rect x="341.4" y="254.0" width="34.8" height="0.0" fill="#767676"/><rect x="378.2" y="187.8" width="34.8" height="66.2" fill="#767676"/><text x="395.6" y="183.8" font-size="10" fill="#1A1A1A" text-anchor="middle" font-family="monospace">7</text><text x="46.0" y="270.0" font-size="10" fill="#767676" text-anchor="middle" font-family="monospace">5</text><text x="230.0" y="270.0" font-size="10" fill="#767676" text-anchor="middle" font-family="monospace">50</text><text x="414.0" y="270.0" font-size="10" fill="#767676" text-anchor="middle" font-family="monospace">95</text></svg>
